<svg width="24" height="24" viewBox="0 0 24 24" xmlns="http://www.w3.org/2000/svg">
  <path fill="currentColor" d="M14.363 16.704v3c0 .24-.088.44-.264.6a.976.976 0 01-.6.264h-3.432a.827.827 0 01-.6-.264.827.827 0 01-.264-.6v-3c0-.224.088-.424.264-.6a.746.746 0 01.6-.24h3.432c.24 0 .44.08.6.24.16.16.248.36.264.6zm.384-14.136l-.36 10.296a.925.925 0 01-.288.6.746.746 0 01-.6.24h-3.432a.868.868 0 01-.6-.24.859.859 0 01-.288-.6l-.36-10.296a.78.78 0 01.216-.6.777.777 0 01.6-.264h4.296c.224 0 .424.088.6.264.176.176.248.376.216.6z"/>
</svg>
