<svg width="35" height="29" viewBox="0 0 35 29" xmlns="http://www.w3.org/2000/svg"><g fill="none" fill-rule="evenodd"><path d="M0 5h24v24H0z"/><path d="M12 5C5.4 5 0 10.4 0 17s5.4 12 12 12 12-5.4 12-12S18.6 5 12 5zm1 11v6h-2v-6h2zm0-4v2h-2v-2h2z" fill="#069"/><g><path d="M17 0h16v16H17z"/><path d="M25 .616c.313 0 .63.114.91.361.21.186.4.451.542.805h0l6.944 11.905c.071.911-.054 1.126-.243 1.315-.279.278-.69.498-1.153.498h0-14c-.463 0-.874-.22-1.153-.498a1.49 1.49 0 01-.37-.586.79.79 0 010-.512h0l7.071-12.122c.141-.354.333-.62.542-.805.28-.247.597-.36.91-.36z" stroke="#FFF" fill="#F9C646"/><path d="M25 13a1 1 0 110-2 1 1 0 010 2zM26 10h-2V6h2z" fill="#8A6D3B"/></g></g></svg>