<svg width="100" height="100" viewBox="0 0 100 100" xmlns="http://www.w3.org/2000/svg">

  <mask id="slider-track-mask">
    <rect fill="white" x="0" y="0" width="100" height="100"/>
    <circle fill="black" cx="80" cy="83.593" r="7">
      <animate attributeName="cx" fill="freeze" dur="0.5s" to="20" begin="anim-circle.begin + 0s"/>
      <animate attributeName="cx" fill="freeze" dur="0.5s" to="80" begin="anim-circle.begin + 0.5s"/>
    </circle>
  </mask>

  <g fill="#C0D8F0">
    <path d="M63.289 67.954L65.909 72l2.421-2.289-1.327-4.41 5.274-7.596.1-5.207 3.383-1.228 1.36 4.91 4.71 1.591 4.875-3.15 2.388 5.173 2.587-.563-1.294-3.284.465-2.255-1.725-.597 1.194-5.307 2.952-.398.53 1.957 3.782-.531.597-1.957-1.493-2.82 1.194-6.467-2.023-1.46-4.975 4.478-5.572-2.72-7.264-9.983 1.857-6.534-13.068-6.8-4.875-.264L57.716 12 54.4 14.786l.033 3.217-4.677-1.227-6.235 1.957-6.534-1.857-4.047 4.046-5.008 1.294-3.715-.896-2.222 3.018 1.526 2.587-5.572 6.269-5.54 4.975-.265 4.246-6.965 6.633-.995 4.644L1 58.169l1.426 3.25 5.87-1.625-.397-3.217 7.761-3.781 5.605 1.824-.862 5.34 5.572 10.647 7.828-1.758 4.046-1.46 4.312 2.123 6.567-7.097-1.16-4.014 5.803-6.07 1.029 6.27 5.572 5.273 3.217.53z">
      <animate attributeName="fill" fill="freeze" dur="0.5s" to="#428BD3" begin="anim-circle.begin + 0s"/>
      <animate attributeName="fill" fill="freeze" dur="0.5s" to="#C0D8F0" begin="anim-circle.begin + 0.5s"/>
    </path>

    <path d="M2.59 82.593h92c.823 0 1.5.677 1.5 1.5s-.677 1.5-1.5 1.5h-92c-.823 0-1.5-.677-1.5-1.5s.677-1.5 1.5-1.5z" mask="url(#slider-track-mask)"/>

    <circle cx="80" cy="83.593" r="5">
      <animate attributeName="cx" fill="freeze" dur="0.5s" to="20" begin="click" id="anim-circle" />
      <animate attributeName="cx" fill="freeze" dur="0.5s" to="80" begin="anim-circle.begin + 0.5s"/>
    </circle>
  </g>

</svg>
